<svg xmlns="http://www.w3.org/2000/svg" xmlns:xlink="http://www.w3.org/1999/xlink" viewBox="0 0 1280 720">
  <defs>
    <linearGradient id="skyGradient" x1="0%" y1="0%" x2="100%" y2="100%">
      <stop offset="0%" stop-color="#CE704B"/>
      <stop offset="100%" stop-color="#CE704B" stop-opacity="0.3"/>
    </linearGradient>
  </defs>
  
  <rect width="1280" height="720" fill="#CE704B"/>
  
  <polygon points="700,0 1280,0 1280,400 1000,0" fill="url(#skyGradient)" fill-opacity="0.35"/>
  <polygon points="850,0 1280,0 1280,280" fill="#CE704B" fill-opacity="0.18"/>
  
  <path d="M0,680 Q200,660 400,680 T800,660 T1200,680 L1280,680 L1280,720 L0,720 Z" fill="#CE704B" fill-opacity="0.35"/>
  <path d="M0,695 Q200,680 400,695 T800,680 T1200,695 L1280,695 L1280,720 L0,720 Z" fill="#FFFFFF" fill-opacity="0.06"/>
  
  <text x="60" y="580" fill="#FFFFFF" fill-opacity="0.06" font-family="Arial, sans-serif" font-size="400" font-weight="bold">{{CHAPTER_NUM}}</text>
  
  <rect x="60" y="200" width="4" height="120" fill="#D4A84B"/>
  
  <text x="80" y="240" fill="#D4A84B" font-family="Arial, sans-serif" font-size="16" font-weight="bold" letter-spacing="4">CHAPTER</text>
  
  <text x="80" y="300" fill="#FFFFFF" font-family="Arial, sans-serif" font-size="72" font-weight="bold">{{CHAPTER_NUM}}</text>
  
  <rect x="80" y="330" width="100" height="3" fill="#D4A84B"/>
  
  <text x="80" y="420" fill="#FFFFFF" font-family="Microsoft YaHei, PingFang SC, Arial, sans-serif" font-size="44" font-weight="bold">{{CHAPTER_TITLE}}</text>
  
  <text x="80" y="480" fill="#FFFFFF" fill-opacity="0.75" font-family="Microsoft YaHei, Arial, sans-serif" font-size="18">{{CHAPTER_DESC}}</text>
  
  <circle cx="1150" cy="100" r="4" fill="#D4A84B" fill-opacity="0.6"/>
  <circle cx="1200" cy="150" r="3" fill="#D4A84B" fill-opacity="0.45"/>
  <circle cx="1100" cy="180" r="5" fill="#D4A84B" fill-opacity="0.55"/>
  
  <rect x="80" y="640" width="200" height="2" fill="#D4A84B" fill-opacity="0.55"/>
</svg>